<svg xmlns="http://www.w3.org/2000/svg" width="1200" height="520" viewBox="0 0 1200 520">
  <defs>
    <marker id="arrow" viewBox="0 0 10 10" refX="9" refY="5" markerWidth="7" markerHeight="7" orient="auto-start-reverse">
      <path d="M 0 0 L 10 5 L 0 10 z" fill="#ffffff"/>
    </marker>
    <style>
      .box { fill: #ffffff; stroke: #d8d8d8; stroke-width: 2; }
      .title { font-family: Arial, Helvetica, sans-serif; font-size: 26px; font-weight: 700; fill: #000000; text-anchor: middle; }
      .body { font-family: Arial, Helvetica, sans-serif; font-size: 20px; fill: #000000; text-anchor: middle; }
      .line { stroke: #ffffff; stroke-width: 4; fill: none; marker-end: url(#arrow); }
      .plain { stroke: #ffffff; stroke-width: 4; fill: none; }
    </style>
  </defs>
  <rect x="0" y="0" width="1200" height="520" fill="#000000"/>

  <path class="line" d="M 285 95 L 360 95"/>
  <path class="line" d="M 610 95 L 685 95"/>
  <path class="line" d="M 905 95 L 960 95"/>
  <path class="plain" d="M 1062.5 145 L 1062.5 220 L 197.5 220 L 197.5 280"/>
  <path class="line" d="M 325 337.5 L 400 337.5"/>
  <path class="line" d="M 625 337.5 L 700 337.5"/>
  <path class="line" d="M 925 337.5 L 995 337.5"/>
  <path class="plain" d="M 1080 390 L 1080 465 L 162.5 465 L 162.5 150"/>
  <path class="line" d="M 162.5 150 L 162.5 146"/>

  <rect class="box" x="40" y="45" width="245" height="100"/>
  <text class="title" x="162.5" y="85">Cluster State</text>
  <text class="body" x="162.5" y="118">Pods and Nodes</text>

  <rect class="box" x="365" y="45" width="245" height="100"/>
  <text class="title" x="487.5" y="85">Resource Input</text>
  <text class="body" x="487.5" y="118">requests or usage</text>

  <rect class="box" x="690" y="45" width="215" height="100"/>
  <text class="title" x="797.5" y="85">Compute RII</text>
  <text class="body" x="797.5" y="118">CPU-memory gap</text>

  <rect class="box" x="965" y="45" width="195" height="100"/>
  <text class="title" x="1062.5" y="85">TOPSIS</text>
  <text class="body" x="1062.5" y="118">rank candidates</text>

  <rect class="box" x="70" y="285" width="255" height="105"/>
  <text class="title" x="197.5" y="325">Feasibility Guard</text>
  <text class="body" x="197.5" y="358">non-origin node fit</text>

  <rect class="box" x="405" y="285" width="220" height="105"/>
  <text class="title" x="515" y="325">Evict Pod</text>
  <text class="body" x="515" y="358">best safe candidate</text>

  <rect class="box" x="705" y="285" width="220" height="105"/>
  <text class="title" x="815" y="325">Scheduler</text>
  <text class="body" x="815" y="358">default placement</text>

  <rect class="box" x="1000" y="285" width="160" height="105"/>
  <text class="title" x="1080" y="325">Observe</text>
  <text class="body" x="1080" y="358">outcome</text>
</svg>
